<svg width="24" height="24" viewBox="0 0 24 24" fill="none" xmlns="http://www.w3.org/2000/svg">
<path d="M12.4999 8.00006H10.9999V14.0001L15.7499 16.8501L16.4999 15.6201L12.4999 13.2501V8.00006ZM17.3369 1.81006L21.9439 5.65506L20.6639 7.19006L16.0539 3.34706L17.3369 1.81006ZM6.66288 1.81006L7.94489 3.34606L3.33688 7.19006L2.05688 5.65406L6.66288 1.81006ZM11.9999 4.00006C7.02988 4.00006 2.99988 8.03006 2.99988 13.0001C2.99988 17.9701 7.02988 22.0001 11.9999 22.0001C16.9699 22.0001 20.9999 17.9701 20.9999 13.0001C20.9999 8.03006 16.9699 4.00006 11.9999 4.00006ZM11.9999 20.0001C8.13988 20.0001 4.99988 16.8601 4.99988 13.0001C4.99988 9.14006 8.13988 6.00006 11.9999 6.00006C15.8599 6.00006 18.9999 9.14006 18.9999 13.0001C18.9999 16.8601 15.8599 20.0001 11.9999 20.0001Z" fill="#E6E8EC"/>
</svg>
