<svg width="15" height="15" viewBox="0 0 15 15" fill="none" xmlns="http://www.w3.org/2000/svg">
<g clip-path="url(#clip0)">
<path d="M14.9808 10.5785C14.8735 10.2364 14.3782 9.73654 14.4384 9.06865C14.4986 8.40099 15.0294 6.87567 14.8916 6.22461C14.7539 5.57354 14.063 3.65938 12.2767 3.36989C10.4912 3.08052 9.20881 3.56087 8.52396 3.53004C7.8396 3.4991 7.71509 2.98165 6.95858 2.98835C5.98208 2.99739 5.81396 3.4027 5.12356 3.62011C4.61733 3.77966 3.03181 3.77773 3.03181 3.77773C3.03181 3.77773 2.57818 3.18584 2.43992 3.4027C2.30166 3.61968 2.12407 4.17224 2.12407 4.17224C2.12407 4.17224 1.27545 4.46813 1.19685 4.62635C1.11819 4.78458 1.01021 5.04113 1.01021 5.04113C1.01021 5.04113 0.111458 5.27742 0.0128906 5.4944C-0.0856166 5.71126 0.407764 6.22406 0.565508 6.40214C0.723253 6.58015 2.55827 6.61912 2.84909 6.83338C3.13979 7.04795 3.9539 7.20895 4.40856 7.28701C5.26182 7.4339 5.63685 9.12885 5.85371 11.0035C5.5971 11.2208 5.14335 11.4133 5.1188 12.0118H7.90053C7.90053 12.0118 7.9375 11.6122 7.98468 11.1174C8.03112 10.6226 8.87257 8.74954 8.87257 8.74954C8.87257 8.74954 9.48394 9.22313 9.89854 9.24346C9.85957 9.61813 10.0344 10.0167 10.0344 10.0167C10.0344 10.0167 10.3925 10.4468 10.7405 10.7871C10.1033 11.0499 10.1219 11.5134 10.1219 11.5134L12.4833 11.5317C12.4833 11.5317 12.7199 11.0388 12.7199 10.6438C13.0364 11.098 13.6477 11.2755 13.6477 11.2755L13.2674 12.0118H14.7104C14.7113 12.0113 15.0882 10.9203 14.9808 10.5785ZM1.71816 5.14422C1.61434 5.14422 1.53073 5.06007 1.53073 4.95674C1.53073 4.85365 1.61434 4.76914 1.71816 4.76914C1.82137 4.76914 1.90576 4.85317 1.90576 4.95674C1.90576 5.06104 1.82089 5.14422 1.71816 5.14422Z" fill="#E6E8EC"/>
<path d="M11 10L12.145 8.855L9.705 6.415L7.705 8.415L4 4.705L4.705 4L7.705 7L9.705 5L12.855 8.145L14 7V10H11Z" fill="#1B192D"/>
</g>
<defs>
<clipPath id="clip0">
<rect width="15" height="15" fill="white"/>
</clipPath>
</defs>
</svg>
