<svg width="24" height="24" viewBox="0 0 24 24" fill="none" xmlns="http://www.w3.org/2000/svg">
<path d="M22.8387 5.61621H1.16129C0.520935 5.61621 0 6.13715 0 6.7775V19.5517C0 20.192 0.520935 20.713 1.16129 20.713H22.8387C23.4791 20.713 24 20.192 24 19.5517V6.7775C24 6.13715 23.4791 5.61621 22.8387 5.61621Z" fill="#FF4F19"/>
<path d="M13.1612 18.7775H10.8386V20.7129H13.1612V18.7775Z" fill="#E3001E"/>
<path d="M22.4623 17.6162V18.7775C22.4623 18.9913 22.289 19.1646 22.0752 19.1646H1.94618C1.7324 19.1646 1.55908 18.9913 1.55908 18.7775V17.6162L3.87107 16.455L13.1614 16.8421L20.9033 16.455L22.4623 17.6162Z" fill="#E6BE8A"/>
<path d="M2.10218 18.1507C5.2831 16.8375 8.88045 16.9175 12.0107 18.3904V4.45495C8.77724 2.93342 5.04543 2.89834 1.78897 4.34966C1.64884 4.41213 1.55908 4.55395 1.55908 4.70739V17.7968C1.55908 18.0765 1.84374 18.2574 2.10218 18.1507Z" fill="#FFEBB7"/>
<path d="M12.0105 18.3904C15.1408 16.9174 18.7381 16.8375 21.919 18.1507C22.1774 18.2574 22.4621 18.0765 22.4621 17.7968V4.70739C22.4621 4.55395 22.3723 4.41213 22.2322 4.34966C18.9758 2.89834 15.2439 2.93342 12.0105 4.45495V18.3904Z" fill="#FFD788"/>
<path d="M13.559 15.8625C13.3942 15.8625 13.2415 15.7566 13.1897 15.5913C13.1258 15.3873 13.2392 15.1699 13.4429 15.1059C13.8346 14.9828 14.2375 14.8777 14.6409 14.7932C14.8496 14.7494 15.0552 14.883 15.0991 15.0927C15.1429 15.3019 15.0091 15.507 14.7997 15.5509C14.4209 15.6303 14.0425 15.7291 13.6751 15.8446C13.6365 15.8566 13.5972 15.8625 13.559 15.8625Z" fill="#868491"/>
<path d="M20.9139 15.8625C20.8757 15.8625 20.8364 15.8566 20.7978 15.8445C19.3372 15.3858 17.8232 15.214 16.2994 15.3353C16.0831 15.3508 15.8998 15.193 15.8828 14.98C15.8661 14.7668 16.025 14.5804 16.2381 14.5634C17.8644 14.4356 19.4748 14.6174 21.03 15.1059C21.2337 15.1699 21.3471 15.3873 21.2832 15.5912C21.2314 15.7566 21.0787 15.8625 20.9139 15.8625Z" fill="#868491"/>
<path d="M20.9138 14.3096C20.8756 14.3096 20.8363 14.3037 20.7978 14.2916C18.4677 13.5598 16.0052 13.5598 13.6751 14.2916C13.4702 14.3557 13.2532 14.2421 13.1897 14.0383C13.1258 13.8344 13.2392 13.617 13.4429 13.553C15.9251 12.7735 18.5478 12.7735 21.0299 13.553C21.2337 13.617 21.3471 13.8344 21.2831 14.0383C21.2313 14.2037 21.0786 14.3096 20.9138 14.3096Z" fill="#868491"/>
<path d="M13.559 12.7657C13.3942 12.7657 13.2415 12.6598 13.1897 12.4944C13.1258 12.2905 13.2392 12.0731 13.4429 12.0091C14.8677 11.5619 16.3462 11.3715 17.8356 11.4415C18.0488 11.4517 18.214 11.633 18.2038 11.8465C18.1939 12.0605 18.0155 12.2238 17.7985 12.2149C16.4009 12.149 15.0125 12.3278 13.675 12.7478C13.6365 12.7598 13.5972 12.7657 13.559 12.7657Z" fill="#868491"/>
<path d="M20.9138 12.7657C20.8757 12.7657 20.8363 12.7598 20.7978 12.7477C20.3087 12.594 19.804 12.4708 19.2978 12.3816C19.0872 12.3444 18.9466 12.1437 18.9841 11.9331C19.0211 11.7227 19.2222 11.5819 19.4324 11.6191C19.9715 11.7142 20.5086 11.8454 21.03 12.0091C21.2337 12.0732 21.3471 12.2905 21.2832 12.4945C21.2313 12.6598 21.0786 12.7657 20.9138 12.7657Z" fill="#868491"/>
<path d="M20.9138 11.2128C20.8756 11.2128 20.8363 11.2069 20.7978 11.1948C18.4677 10.463 16.0052 10.463 13.6751 11.1948C13.4702 11.2585 13.2532 11.1451 13.1897 10.9415C13.1258 10.7376 13.2392 10.5202 13.4429 10.4562C15.9251 9.67672 18.5478 9.67672 21.0299 10.4562C21.2337 10.5202 21.3471 10.7376 21.2831 10.9415C21.2313 11.1069 21.0786 11.2128 20.9138 11.2128Z" fill="#868491"/>
<path d="M13.559 9.66431C13.3942 9.66431 13.2415 9.55844 13.1897 9.3931C13.1258 9.18915 13.2392 8.9718 13.4429 8.90774C14.2217 8.66314 15.0276 8.49345 15.8392 8.40345C16.0547 8.37756 16.2434 8.53332 16.2668 8.74535C16.2902 8.95782 16.1371 9.14928 15.9247 9.1727C15.163 9.25738 14.4058 9.41672 13.6751 9.64636C13.6365 9.65841 13.5972 9.66431 13.559 9.66431Z" fill="#868491"/>
<path d="M20.9136 9.66441C20.8754 9.66441 20.8361 9.65855 20.7975 9.64645C19.7047 9.303 18.5699 9.11966 17.4241 9.10171C17.2101 9.09832 17.0396 8.92234 17.043 8.70857C17.0464 8.49499 17.2332 8.31503 17.4362 8.32752C18.6564 8.34678 19.8657 8.54207 21.0297 8.90778C21.2334 8.97184 21.3468 9.1892 21.2829 9.39315C21.2307 9.55853 21.0784 9.66441 20.9136 9.66441Z" fill="#868491"/>
<path d="M13.559 8.12048C13.3942 8.12048 13.2415 8.0146 13.1897 7.84926C13.1258 7.64531 13.2392 7.42796 13.4429 7.36389C15.1297 6.8341 16.8754 6.66397 18.6339 6.8596C18.8464 6.88302 18.9995 7.07449 18.976 7.28696C18.9526 7.49923 18.7651 7.65649 18.5485 7.62886C16.8988 7.44591 15.2586 7.60486 13.675 8.10252C13.6365 8.11462 13.5972 8.12048 13.559 8.12048Z" fill="#868491"/>
<path d="M20.9138 8.12042C20.8757 8.12042 20.8363 8.11456 20.7978 8.10247C20.5521 8.02515 20.3 7.95503 20.0478 7.89363C19.8403 7.84297 19.7129 7.63355 19.7636 7.42582C19.8142 7.2181 20.0221 7.09108 20.2315 7.14136C20.4996 7.20678 20.768 7.28158 21.0299 7.36384C21.2337 7.4279 21.3471 7.64526 21.2832 7.84921C21.2314 8.0146 21.0787 8.12042 20.9138 8.12042Z" fill="#868491"/>
<path d="M13.559 6.56754C13.3942 6.56754 13.2415 6.46152 13.1897 6.29614C13.1258 6.09199 13.2392 5.87483 13.4433 5.81096C13.7095 5.7274 13.9779 5.65274 14.2413 5.58868C14.4477 5.53782 14.6583 5.66561 14.7089 5.87333C14.7596 6.08106 14.6318 6.29048 14.4243 6.34094C14.1771 6.40104 13.9249 6.47115 13.6747 6.54959C13.6361 6.56163 13.5972 6.56754 13.559 6.56754Z" fill="#868491"/>
<path d="M20.9138 6.56749C20.8756 6.56749 20.8363 6.56164 20.7978 6.54954C19.2139 6.05188 17.5744 5.89312 15.9243 6.07588C15.7103 6.10196 15.5202 5.94601 15.4968 5.73397C15.4733 5.52151 15.6264 5.33004 15.8388 5.30662C17.5966 5.11099 19.3427 5.28112 21.0299 5.81091C21.2336 5.87497 21.347 6.09233 21.2831 6.29628C21.2313 6.46162 21.0786 6.56749 20.9138 6.56749Z" fill="#868491"/>
<path d="M3.10736 15.8625C2.94255 15.8625 2.78984 15.7566 2.73802 15.5913C2.67415 15.3873 2.78752 15.1699 2.99128 15.1059C3.38292 14.9828 3.78589 14.8777 4.18925 14.7932C4.39828 14.7494 4.60358 14.883 4.64742 15.0927C4.69126 15.3019 4.55747 15.507 4.348 15.5509C3.96923 15.6303 3.59084 15.7291 3.22339 15.8446C3.18483 15.8566 3.14554 15.8625 3.10736 15.8625Z" fill="#B4B6BC"/>
<path d="M10.4622 15.8625C10.424 15.8625 10.3847 15.8566 10.3462 15.8445C8.88587 15.3858 7.3715 15.214 5.84769 15.3353C5.62845 15.3508 5.44811 15.193 5.43113 14.98C5.41448 14.7668 5.57329 14.5804 5.78648 14.5634C7.41273 14.4356 9.02276 14.6174 10.5783 15.1059C10.7821 15.1699 10.8955 15.3873 10.8316 15.5912C10.7797 15.7566 10.627 15.8625 10.4622 15.8625Z" fill="#B4B6BC"/>
<path d="M10.4622 14.3096C10.424 14.3096 10.3846 14.3037 10.3461 14.2916C8.01599 13.5598 5.55352 13.5598 3.22339 14.2916C3.01775 14.3557 2.80151 14.2421 2.73802 14.0383C2.67415 13.8344 2.78752 13.617 2.99128 13.553C5.47339 12.7735 8.09612 12.7735 10.5782 13.553C10.782 13.617 10.8954 13.8344 10.8315 14.0383C10.7797 14.2037 10.627 14.3096 10.4622 14.3096Z" fill="#B4B6BC"/>
<path d="M3.10736 12.7657C2.94255 12.7657 2.78984 12.6598 2.73802 12.4944C2.67415 12.2905 2.78752 12.0731 2.99128 12.0091C4.41604 11.5619 5.89562 11.3715 7.38392 11.4415C7.59711 11.4517 7.7623 11.633 7.75209 11.8465C7.74188 12.0605 7.56155 12.2238 7.34685 12.2149C5.9489 12.149 4.56082 12.3278 3.22335 12.7478C3.18483 12.7598 3.14554 12.7657 3.10736 12.7657Z" fill="#B4B6BC"/>
<path d="M10.4622 12.7657C10.424 12.7657 10.3847 12.7598 10.3461 12.7477C9.857 12.594 9.35232 12.4708 8.84615 12.3816C8.63557 12.3444 8.49496 12.1437 8.53241 11.9331C8.56908 11.7227 8.77095 11.5819 8.98076 11.6191C9.51984 11.7142 10.057 11.8454 10.5783 12.0091C10.7821 12.0732 10.8955 12.2905 10.8316 12.4945C10.7797 12.6598 10.627 12.7657 10.4622 12.7657Z" fill="#B4B6BC"/>
<path d="M3.10736 11.2128C2.94255 11.2128 2.78984 11.1069 2.73802 10.9415C2.67415 10.7376 2.78752 10.5202 2.99128 10.4562C5.19178 9.76535 7.53967 9.68842 9.77946 10.2339C9.98738 10.2845 10.1148 10.494 10.0641 10.7017C10.0135 10.9092 9.80293 11.0357 9.59651 10.9862C7.49317 10.4734 5.28928 10.5461 3.22339 11.1949C3.18483 11.2069 3.14554 11.2128 3.10736 11.2128Z" fill="#B4B6BC"/>
<path d="M3.10736 9.66431C2.94255 9.66431 2.78984 9.55844 2.73802 9.3931C2.67415 9.18915 2.78752 8.9718 2.99128 8.90774C3.77002 8.66314 4.57596 8.49345 5.38755 8.40345C5.60114 8.37756 5.79168 8.53332 5.8151 8.74535C5.83852 8.95782 5.68543 9.14928 5.47301 9.1727C4.7113 9.25738 3.95409 9.41672 3.22339 9.64636C3.18483 9.65841 3.14554 9.66431 3.10736 9.66431Z" fill="#B4B6BC"/>
<path d="M9.68838 9.44862C9.65813 9.44862 9.62712 9.44504 9.59654 9.43764C8.73844 9.22861 7.85538 9.11538 6.97265 9.10159C6.75868 9.0982 6.58822 8.92222 6.5916 8.70844C6.59499 8.49486 6.76207 8.31491 6.98475 8.3274C7.92525 8.34235 8.86541 8.46273 9.77949 8.68536C9.98741 8.73603 10.1148 8.94545 10.0642 9.15317C10.021 9.33012 9.86262 9.44862 9.68838 9.44862Z" fill="#B4B6BC"/>
<path d="M3.10736 8.12048C2.94255 8.12048 2.78984 8.0146 2.73802 7.84926C2.67415 7.64531 2.78752 7.42796 2.99128 7.36389C4.6784 6.8341 6.42411 6.66397 8.1823 6.8596C8.39477 6.88302 8.54787 7.07449 8.5244 7.28696C8.50098 7.49923 8.31193 7.65649 8.09685 7.62886C6.44714 7.44591 4.80691 7.60486 3.22335 8.10252C3.18483 8.11462 3.14554 8.12048 3.10736 8.12048Z" fill="#B4B6BC"/>
<path d="M3.10736 6.56754C2.94255 6.56754 2.78984 6.46152 2.73802 6.29614C2.67415 6.09199 2.78752 5.87483 2.99166 5.81096C3.25779 5.7274 3.52619 5.65274 3.78966 5.58868C3.99569 5.53782 4.20661 5.66561 4.25727 5.87333C4.30793 6.08106 4.18014 6.29048 3.97261 6.34094C3.7254 6.40104 3.47326 6.47115 3.223 6.54959C3.18444 6.56163 3.14553 6.56754 3.10736 6.56754Z" fill="#B4B6BC"/>
<path d="M9.68837 6.35169C9.65813 6.35169 9.62711 6.3481 9.59653 6.3407C8.24358 6.01123 6.85622 5.92259 5.47264 6.07588C5.26017 6.10196 5.06851 5.94639 5.04509 5.73397C5.02167 5.52151 5.17477 5.33004 5.38719 5.30662C6.86033 5.14254 8.3388 5.23781 9.77944 5.58843C9.98736 5.63909 10.1148 5.84851 10.0641 6.05623C10.021 6.23314 9.86261 6.35169 9.68837 6.35169Z" fill="#B4B6BC"/>
<path d="M9.68808 10.4546C9.68812 10.6092 9.86038 10.7014 9.989 10.6157L10.8494 10.0421L11.7097 10.6157C11.8384 10.7014 12.0107 10.6092 12.0107 10.4546V4.48706C12.0107 4.33415 11.9215 4.19301 11.7817 4.13088C11.179 3.86281 10.5595 3.64783 9.93035 3.48162C9.80759 3.4492 9.68696 3.54414 9.68701 3.67111L9.68808 10.4546Z" fill="#5D647F"/>
</svg>
