<svg width="130" height="20" viewBox="0 0 130 20" fill="none" xmlns="http://www.w3.org/2000/svg">
<g clip-path="url(#clip0)">
<path d="M41.9445 3.22093V8.16262H48.5818V11.2985H41.9445V16.5238H49.4295V19.7447H37.9893V0H49.4295V3.22093H41.9445Z" fill="#FC3271"/>
<path d="M54.6548 16.4955H61.6325V19.7448H50.1638V16.5523L56.9996 7.34331H50.1922V4.09717H61.5474V7.28973L54.6548 16.4955Z" fill="#FC3271"/>
<path d="M74.8819 0.0283203V3.22088H66.6625V8.27604H72.9626V11.4119H66.6625V19.7447H62.7073V0.0283203H74.8819Z" fill="#FC3271"/>
<path d="M78.5818 18.9978C77.3779 18.3297 76.4293 17.3842 75.7422 16.1582C75.0552 14.9354 74.7117 13.5203 74.7117 11.9193C74.7117 10.3183 75.0646 8.9064 75.7706 7.68359C76.4766 6.46077 77.4409 5.51214 78.6669 4.844C79.8897 4.17587 81.2575 3.8418 82.764 3.8418C84.2704 3.8418 85.6351 4.17587 86.861 4.844C88.0839 5.51214 89.0514 6.45762 89.7574 7.68359C90.4633 8.9064 90.8163 10.3215 90.8163 11.9193C90.8163 13.5203 90.4539 14.9322 89.729 16.1582C89.0041 17.381 88.024 18.3297 86.7917 18.9978C85.5595 19.6659 84.1791 20 82.6537 20C81.1441 20 79.7857 19.6659 78.5818 18.9978ZM84.6707 16.0322C85.301 15.6823 85.8053 15.1623 86.1835 14.4658C86.5585 13.7693 86.7476 12.9215 86.7476 11.9225C86.7476 10.4349 86.3568 9.2909 85.5752 8.4904C84.7936 7.68989 83.8387 7.28964 82.7073 7.28964C81.5758 7.28964 80.6304 7.68989 79.8677 8.4904C79.105 9.2909 78.7236 10.4349 78.7236 11.9225C78.7236 13.41 79.0955 14.5541 79.8393 15.3546C80.5831 16.1551 81.5191 16.5553 82.6505 16.5553C83.3659 16.5522 84.0372 16.3788 84.6707 16.0322Z" fill="#FC3271"/>
<path d="M97.6897 4.57607C98.5091 4.10649 99.4452 3.87012 100.501 3.87012V8.02391H99.4546C98.2129 8.02391 97.2737 8.31701 96.6434 8.90006C96.0131 9.4831 95.6979 10.5011 95.6979 11.9508V19.7478H91.7427V4.09703H95.6979V6.52691C96.2085 5.69804 96.8703 5.04566 97.6897 4.57607Z" fill="#FC3271"/>
<path d="M115.613 13.1075H104.173C104.267 14.2358 104.661 15.1214 105.358 15.7643C106.054 16.4041 106.911 16.7255 107.929 16.7255C109.398 16.7255 110.444 16.0952 111.065 14.8346H115.329C114.879 16.3411 114.012 17.5796 112.729 18.5503C111.45 19.521 109.877 20.0064 108.011 20.0064C106.505 20.0064 105.153 19.6723 103.958 19.0041C102.761 18.336 101.831 17.3905 101.163 16.1646C100.495 14.9417 100.161 13.5267 100.161 11.9257C100.161 10.3058 100.488 8.88439 101.15 7.66157C101.809 6.43875 102.732 5.49643 103.917 4.83774C105.102 4.17906 106.47 3.84814 108.014 3.84814C109.502 3.84814 110.835 4.16961 112.011 4.80938C113.186 5.44915 114.1 6.35996 114.749 7.53551C115.399 8.7142 115.723 10.0631 115.723 11.5885C115.726 12.1463 115.689 12.6568 115.613 13.1075ZM111.632 10.4507C111.614 9.43277 111.245 8.61965 110.529 8.00825C109.814 7.39684 108.938 7.09113 107.901 7.09113C106.921 7.09113 106.098 7.38738 105.43 7.97988C104.762 8.57238 104.352 9.3981 104.201 10.4507H111.632Z" fill="#FC3271"/>
<path d="M125.276 19.7448L122.055 14.8851L119.203 19.7448H114.967L120.076 11.8911L114.907 4.09717H119.37L122.562 8.92856L125.443 4.09717H129.679L124.538 11.8942L129.735 19.748H125.276V19.7448Z" fill="#FC3271"/>
<path d="M12.1462 19.8298H0V0H12.1462V3.87015H4.82824V15.9597H12.1462V19.8298Z" fill="#7666FF"/>
<path d="M16.9525 19.8298H12.1464L18.3708 11.6105H4.82837V7.88213H18.1155L12.1464 0H16.9525L22.0613 6.74125L24.4628 9.91491L22.0613 13.0886L16.9525 19.8298Z" fill="#4A23EB"/>
<path d="M31.9759 19.8299H27.1666L22.061 13.0887L24.4625 9.91504L31.9759 19.8299Z" fill="#7666FF"/>
<path d="M24.4625 9.91491L22.061 6.74125L27.1666 0H31.9759L24.4625 9.91491Z" fill="#7666FF"/>
</g>
<defs>
<clipPath id="clip0">
<rect width="129.738" height="20" fill="white"/>
</clipPath>
</defs>
</svg>
