<svg width="92" height="88" viewBox="0 0 92 88" fill="none" xmlns="http://www.w3.org/2000/svg">
<path d="M35.2919 51.0869H4V0H35.2919V9.97055H16.4388V41.1163H35.2919V51.0869Z" fill="#7666FF"/>
<path d="M47.6741 51.0869H35.2921L51.3278 29.9116H16.439V20.3065H50.6701L35.2921 0H47.6741L60.8355 17.3673L67.0224 25.5434L60.8355 33.7196L47.6741 51.0869Z" fill="#4A23EB"/>
<path d="M86.3789 51.0871H73.9888L60.8354 33.7199L67.0224 25.5437L86.3789 51.0871Z" fill="#7666FF"/>
<path d="M67.0224 25.5434L60.8354 17.3673L73.9888 0H86.3789L67.0224 25.5434Z" fill="#7666FF"/>
<path d="M3.95525 70.2209V75.1626H10.5925V78.2985H3.95525V83.5238H11.4403V86.7447H0V67H11.4403V70.2209H3.95525Z" fill="#FC3271"/>
<path d="M16.6656 83.4955H23.6432V86.7448H12.1746V83.5523L19.0104 74.3433H12.2029V71.0972H23.5581V74.2897L16.6656 83.4955Z" fill="#FC3271"/>
<path d="M36.8926 67.0283V70.2209H28.6733V75.276H34.9733V78.4119H28.6733V86.7447H24.718V67.0283H36.8926Z" fill="#FC3271"/>
<path d="M40.5926 85.9978C39.3887 85.3297 38.44 84.3842 37.753 83.1582C37.0659 81.9354 36.7224 80.5203 36.7224 78.9193C36.7224 77.3183 37.0754 75.9064 37.7813 74.6836C38.4873 73.4608 39.4517 72.5121 40.6777 71.844C41.9005 71.1759 43.2683 70.8418 44.7747 70.8418C46.2812 70.8418 47.6458 71.1759 48.8718 71.844C50.0946 72.5121 51.0621 73.4576 51.7681 74.6836C52.4741 75.9064 52.827 77.3215 52.827 78.9193C52.827 80.5203 52.4646 81.9322 51.7397 83.1582C51.0149 84.381 50.0347 85.3297 48.8025 85.9978C47.5702 86.6659 46.1898 87 44.6644 87C43.1548 87 41.7965 86.6659 40.5926 85.9978ZM46.6814 83.0322C47.3118 82.6823 47.816 82.1623 48.1942 81.4658C48.5692 80.7693 48.7583 79.9215 48.7583 78.9225C48.7583 77.4349 48.3675 76.2909 47.5859 75.4904C46.8044 74.6899 45.8494 74.2896 44.718 74.2896C43.5866 74.2896 42.6411 74.6899 41.8784 75.4904C41.1157 76.2909 40.7344 77.4349 40.7344 78.9225C40.7344 80.41 41.1063 81.5541 41.8501 82.3546C42.5938 83.1551 43.5298 83.5553 44.6613 83.5553C45.3767 83.5522 46.048 83.3788 46.6814 83.0322Z" fill="#FC3271"/>
<path d="M59.7005 71.5761C60.5199 71.1065 61.4559 70.8701 62.5117 70.8701V75.0239H61.4654C60.2236 75.0239 59.2845 75.317 58.6541 75.9001C58.0238 76.4831 57.7087 77.5011 57.7087 78.9508V86.7478H53.7534V71.097H57.7087V73.5269C58.2192 72.698 58.8811 72.0457 59.7005 71.5761Z" fill="#FC3271"/>
<path d="M77.6236 80.1075H66.1834C66.2779 81.2358 66.6719 82.1214 67.3684 82.7643C68.0649 83.4041 68.9221 83.7255 69.9401 83.7255C71.4087 83.7255 72.455 83.0952 73.0759 81.8346H77.34C76.8893 83.3411 76.0226 84.5796 74.7399 85.5503C73.4604 86.521 71.8877 87.0064 70.022 87.0064C68.5155 87.0064 67.1635 86.6723 65.9691 86.0041C64.7714 85.336 63.8417 84.3905 63.1736 83.1646C62.5055 81.9417 62.1714 80.5267 62.1714 78.9257C62.1714 77.3058 62.4992 75.8844 63.161 74.6616C63.8197 73.4388 64.7431 72.4964 65.9281 71.8377C67.1131 71.1791 68.4809 70.8481 70.0252 70.8481C71.5127 70.8481 72.8458 71.1696 74.0214 71.8094C75.1969 72.4492 76.1109 73.36 76.7601 74.5355C77.4093 75.7142 77.7339 77.0631 77.7339 78.5885C77.7371 79.1463 77.6993 79.6568 77.6236 80.1075ZM73.6432 77.4507C73.6243 76.4328 73.2555 75.6197 72.5401 75.0082C71.8247 74.3968 70.9486 74.0911 69.9117 74.0911C68.9316 74.0911 68.109 74.3874 67.4408 74.9799C66.7727 75.5724 66.363 76.3981 66.2117 77.4507H73.6432Z" fill="#FC3271"/>
<path d="M87.2865 86.7448L84.0655 81.8851L81.2133 86.7448H76.9776L82.0863 78.8911L76.9177 71.0972H81.3804L84.5729 75.9286L87.4535 71.0972H91.6892L86.549 78.8942L91.746 86.748H87.2865V86.7448Z" fill="#FC3271"/>
</svg>
