<svg width="24" height="24" viewBox="0 0 24 24" fill="none" xmlns="http://www.w3.org/2000/svg">
<path fill-rule="evenodd" clip-rule="evenodd" d="M12 24C18.6274 24 24 18.6274 24 12C24 5.37258 18.6274 0 12 0C5.37258 0 0 5.37258 0 12C0 18.6274 5.37258 24 12 24ZM16.2426 7.75736C16.7113 7.28873 17.4711 7.28873 17.9397 7.75736C18.4083 8.22599 18.4083 8.98579 17.9397 9.45442L11.1559 16.2382L11.1515 16.2426C11.0303 16.3638 10.8896 16.4537 10.7395 16.5122C10.5269 16.5951 10.2955 16.6151 10.0738 16.5721C9.84684 16.5282 9.63016 16.4184 9.45442 16.2426L9.44987 16.2381L6.06033 12.8485C5.59171 12.3799 5.59171 11.6201 6.06033 11.1515C6.52896 10.6828 7.28876 10.6828 7.75739 11.1515L10.303 13.697L16.2426 7.75736Z" fill="#7666FF"/>
</svg>
