<svg width="48" height="48" viewBox="0 0 48 48" fill="none" xmlns="http://www.w3.org/2000/svg">
<path fill-rule="evenodd" clip-rule="evenodd" d="M24 48C37.2548 48 48 37.2548 48 24C48 10.7452 37.2548 0 24 0C10.7452 0 0 10.7452 0 24C0 37.2548 10.7452 48 24 48ZM31.2 19.2C31.2 23.1765 27.9765 26.4 24 26.4C20.0236 26.4 16.8 23.1765 16.8 19.2C16.8 15.2235 20.0236 12 24 12C27.9765 12 31.2 15.2235 31.2 19.2ZM9.59824 36C12.8822 31.628 18.1106 28.8 23.9996 28.8C29.8885 28.8 35.1169 31.628 38.4009 36C35.1169 40.372 29.8885 43.2 23.9996 43.2C18.1106 43.2 12.8822 40.372 9.59824 36Z" fill="white"/>
</svg>
