<svg width="18" height="18" viewBox="0 0 18 18" fill="none" xmlns="http://www.w3.org/2000/svg">
<path d="M11.25 2.25C11.6642 2.25 12 2.58579 12 3L13.5 3C13.9142 3 14.25 3.33579 14.25 3.75C14.25 4.16421 13.9142 4.5 13.5 4.5L4.5 4.5C4.08579 4.5 3.75 4.16421 3.75 3.75C3.75 3.33579 4.08579 3 4.5 3L6 3C6 2.58579 6.33579 2.25 6.75 2.25H11.25Z" fill="#FCFCFD"/>
<path fill-rule="evenodd" clip-rule="evenodd" d="M4.5 5.25H13.5V14.25C13.5 15.0784 12.8284 15.75 12 15.75H6C5.17157 15.75 4.5 15.0784 4.5 14.25V5.25ZM7.125 6.75C6.91789 6.75 6.75 6.91789 6.75 7.125V13.875C6.75 14.0821 6.91789 14.25 7.125 14.25C7.33211 14.25 7.5 14.0821 7.5 13.875V7.125C7.5 6.91789 7.33211 6.75 7.125 6.75ZM10.875 6.75C10.6679 6.75 10.5 6.91789 10.5 7.125V13.875C10.5 14.0821 10.6679 14.25 10.875 14.25C11.0821 14.25 11.25 14.0821 11.25 13.875V7.125C11.25 6.91789 11.0821 6.75 10.875 6.75Z" fill="#FCFCFD"/>
</svg>
