<svg width="89" height="89" viewBox="0 0 89 89" fill="none" xmlns="http://www.w3.org/2000/svg">
<path d="M55.6251 11.125C57.6731 11.125 59.3334 12.7853 59.3334 14.8333L66.7501 14.8333C68.7981 14.8333 70.4584 16.4936 70.4584 18.5417C70.4584 20.5897 68.7981 22.25 66.7501 22.25L22.2501 22.25C20.202 22.25 18.5417 20.5897 18.5417 18.5417C18.5417 16.4936 20.202 14.8333 22.2501 14.8333L29.6667 14.8333C29.6667 12.7853 31.327 11.125 33.3751 11.125H55.6251Z" fill="#FC3232"/>
<path fill-rule="evenodd" clip-rule="evenodd" d="M22.2501 25.9583H66.7501V70.4583C66.7501 74.5544 63.4295 77.875 59.3334 77.875H29.6667C25.5706 77.875 22.2501 74.5544 22.2501 70.4583V25.9583ZM35.2292 33.375C34.2052 33.375 33.3751 34.2051 33.3751 35.2292V68.6042C33.3751 69.6282 34.2052 70.4583 35.2292 70.4583C36.2533 70.4583 37.0834 69.6282 37.0834 68.6042V35.2292C37.0834 34.2051 36.2533 33.375 35.2292 33.375ZM53.7709 33.375C52.7469 33.375 51.9168 34.2051 51.9168 35.2292V68.6042C51.9168 69.6282 52.7469 70.4583 53.7709 70.4583C54.7949 70.4583 55.6251 69.6282 55.6251 68.6042V35.2292C55.6251 34.2051 54.7949 33.375 53.7709 33.375Z" fill="#FC3232"/>
</svg>
