<svg width="24" height="24" viewBox="0 0 24 24" fill="none" xmlns="http://www.w3.org/2000/svg">
<path d="M11.0773 8.65944C11.8974 7.76863 13.3049 8.4074 13.3049 9.66179C13.3049 10.1703 13.6844 10.5825 14.1525 10.5825C14.6205 10.5825 15 10.1703 15 9.66179C15 8.18455 14.0902 6.93454 12.8476 6.5362V5.92067C12.8476 5.4122 12.4681 5 12 5C11.5319 5 11.1525 5.4122 11.1525 5.92067V6.53471C9.70902 6.99399 8.77754 8.56501 9.10679 10.2167C9.30943 11.2334 9.95751 12.0775 10.8404 12.4747L12.511 13.2264C13.2837 13.5741 13.515 14.6515 12.956 15.3032C12.1539 16.2369 10.6951 15.6253 10.6951 14.3382C10.6951 13.8297 10.3156 13.4175 9.84753 13.4175C9.37945 13.4175 9 13.8297 9 14.3382C9 15.7766 9.87522 17.0589 11.1524 17.4631V18.0793C11.1524 18.5878 11.5319 19 12 19C12.4681 19 12.8475 18.5878 12.8475 18.0793V17.4618C13.3204 17.3121 13.7536 17.038 14.1103 16.6545C15.5835 15.0715 15.056 12.3785 13.1596 11.5253L11.489 10.7736C10.7076 10.422 10.4729 9.31719 11.0773 8.65944Z" fill="#E6E8EC"/>
<path d="M19.0694 4.93051C15.1624 1.02344 8.83812 1.02289 4.93051 4.93051C1.02346 8.83758 1.02287 15.1619 4.93051 19.0695C8.83757 22.9765 15.1618 22.9771 19.0694 19.0695C22.9765 15.1625 22.9772 8.83816 19.0694 4.93051ZM12 20.3554C7.39285 20.3554 3.64464 16.6072 3.64464 12.0001C3.64464 7.39293 7.39285 3.64467 12 3.64467C16.6071 3.64467 20.3554 7.39289 20.3554 12.0001C20.3554 16.6072 16.6071 20.3554 12 20.3554Z" fill="#E6E8EC"/>
</svg>
