<svg width="21" height="14" viewBox="0 0 21 14" fill="none" xmlns="http://www.w3.org/2000/svg">
<path fill-rule="evenodd" clip-rule="evenodd" d="M0 7C1.76733 2.87956 5.80354 0 10.5 0C15.1965 0 19.2327 2.87956 21 7C19.2327 11.1204 15.1965 14 10.5 14C5.80354 14 1.76733 11.1204 0 7ZM15.1667 7C15.1667 9.57733 13.0773 11.6667 10.5 11.6667C7.92267 11.6667 5.83333 9.57733 5.83333 7C5.83333 4.42267 7.92267 2.33333 10.5 2.33333C11.2454 2.33333 11.95 2.50809 12.575 2.81888C12.0225 3.24559 11.6667 3.91457 11.6667 4.66667C11.6667 5.95533 12.7113 7 14 7C14.4209 7 14.8158 6.88854 15.1568 6.69353C15.1633 6.79484 15.1667 6.89703 15.1667 7Z" fill="#777E91"/>
<path d="M12.8333 7C12.8333 8.28866 11.7887 9.33333 10.5 9.33333C9.21134 9.33333 8.16667 8.28866 8.16667 7C8.16667 5.71134 9.21134 4.66667 10.5 4.66667C11.7887 4.66667 12.8333 5.71134 12.8333 7Z" fill="#777E91"/>
</svg>
