<svg width="22" height="16" viewBox="0 0 22 16" fill="none" xmlns="http://www.w3.org/2000/svg">
<path d="M10.256 10.4506C10.9612 10.4506 11.6376 10.2057 12.1363 9.76971C12.635 9.33371 12.9151 8.74238 12.9151 8.12579C12.9151 8.05771 12.9115 7.99024 12.9049 7.92361L10.0247 10.4417C10.101 10.4475 10.1779 10.4506 10.256 10.4506ZM19.0577 0.934533L18.0434 0.0485994C18.0078 0.0174806 17.9595 0 17.9091 0C17.8588 0 17.8105 0.0174806 17.7749 0.0485994L15.1794 2.31844C13.7476 1.67869 12.1381 1.35882 10.351 1.35882C5.78772 1.35882 2.3831 3.43665 0.1371 7.59232C0.046821 7.75945 0 7.94199 0 8.12683C0 8.31166 0.046821 8.4942 0.1371 8.66134C1.03455 10.3141 2.11521 11.6387 3.37909 12.6354L0.867407 14.8305C0.831814 14.8616 0.81182 14.9039 0.81182 14.9479C0.81182 14.9919 0.831814 15.0341 0.867407 15.0653L1.88096 15.9514C1.91657 15.9825 1.96487 16 2.01522 16C2.06557 16 2.11386 15.9825 2.14948 15.9514L19.0577 1.16951C19.0753 1.15409 19.0893 1.13577 19.0989 1.11561C19.1085 1.09545 19.1134 1.07384 19.1134 1.05202C19.1134 1.0302 19.1085 1.00859 19.0989 0.98843C19.0893 0.96827 19.0753 0.949956 19.0577 0.934533ZM6.07738 8.12579C6.07731 7.49477 6.26419 6.8745 6.61981 6.32539C6.97543 5.77629 7.48766 5.31708 8.1066 4.99249C8.72554 4.66791 9.43009 4.48903 10.1516 4.47326C10.8731 4.4575 11.587 4.6054 12.2237 4.90255L11.0694 5.91179C10.6039 5.78146 10.1063 5.76577 9.63119 5.86642C9.15613 5.96708 8.72195 6.1802 8.3763 6.48239C8.03066 6.78459 7.7869 7.16419 7.67177 7.57953C7.55664 7.99488 7.57459 8.42993 7.72366 8.83695L6.56931 9.84618C6.24538 9.31703 6.07637 8.72597 6.07738 8.12579Z" fill="#777E91"/>
<path d="M20.9507 7.69304C20.0973 6.18338 19.0815 4.95236 17.9034 4L14.4087 6.93549C14.7033 7.58229 14.7686 8.28689 14.5967 8.96418C14.4248 9.64147 14.0231 10.2625 13.4401 10.7521C12.8571 11.2418 12.1178 11.5792 11.3114 11.7236C10.505 11.868 9.66615 11.8131 8.89609 11.5657L5.93188 14.0554C7.30707 14.5899 8.83661 14.8571 10.5205 14.8571C15.1804 14.8571 18.6572 12.8187 20.9507 8.74179C21.0429 8.57783 21.0908 8.39875 21.0908 8.21741C21.0908 8.03608 21.0429 7.857 20.9507 7.69304Z" fill="#777E91"/>
</svg>
