<svg width="24" height="24" viewBox="0 0 24 24" fill="none" xmlns="http://www.w3.org/2000/svg">
<path fill-rule="evenodd" clip-rule="evenodd" d="M9.00003 14.2912L2.15637 3.53688C1.73273 2.87115 2.21095 2 3.00004 2H21C21.7891 2 22.2673 2.87115 21.8437 3.53688L15 14.2912V19C15 19.3788 14.786 19.725 14.4472 19.8944L10.4472 21.8944C9.78235 22.2269 9.00003 21.7434 9.00003 21V14.2912ZM4.82173 3.99997L10.8437 13.4631C10.9458 13.6235 11.0001 13.8098 11.0001 14V19.3819L13.0001 18.3819V14C13.0001 13.8098 13.0543 13.6235 13.1564 13.4631L19.1784 3.99997H4.82173Z" fill="#777E91"/>
</svg>
