<svg width="21" height="15" viewBox="0 0 21 15" fill="none" xmlns="http://www.w3.org/2000/svg">
<rect width="21" height="15" rx="2" fill="white"/>
<mask id="mask0" style="mask-type:alpha" maskUnits="userSpaceOnUse" x="0" y="0" width="21" height="15">
<rect width="21" height="15" rx="2" fill="white"/>
</mask>
<g mask="url(#mask0)">
<path fill-rule="evenodd" clip-rule="evenodd" d="M21 0H0V1H21V0ZM21 2.00001H0V3.00001H21V2.00001ZM0 4H21V5H0V4ZM21 6H0V7H21V6ZM0 8.00001H21V9.00001H0V8.00001ZM21 9.99999H0V11H21V9.99999ZM0 12H21V13H0V12ZM21 14H0V15H21V14Z" fill="#D02F44"/>
<rect width="9" height="7" fill="#46467F"/>
<g filter="url(#filter0_d)">
<path fill-rule="evenodd" clip-rule="evenodd" d="M2 1.5C2 1.77614 1.77614 2 1.5 2C1.22386 2 1 1.77614 1 1.5C1 1.22386 1.22386 1 1.5 1C1.77614 1 2 1.22386 2 1.5ZM4.00001 1.5C4.00001 1.77614 3.77615 2 3.50001 2C3.22387 2 3.00001 1.77614 3.00001 1.5C3.00001 1.22386 3.22387 1 3.50001 1C3.77615 1 4.00001 1.22386 4.00001 1.5ZM5.5 2C5.77614 2 6 1.77614 6 1.5C6 1.22386 5.77614 1 5.5 1C5.22385 1 5 1.22386 5 1.5C5 1.77614 5.22385 2 5.5 2ZM8 1.5C8 1.77614 7.77614 2 7.5 2C7.22386 2 7 1.77614 7 1.5C7 1.22386 7.22386 1 7.5 1C7.77614 1 8 1.22386 8 1.5ZM2.49999 2.99999C2.77614 2.99999 2.99999 2.77614 2.99999 2.49999C2.99999 2.22385 2.77614 1.99999 2.49999 1.99999C2.22385 1.99999 1.99999 2.22385 1.99999 2.49999C1.99999 2.77614 2.22385 2.99999 2.49999 2.99999ZM5 2.49999C5 2.77614 4.77615 2.99999 4.5 2.99999C4.22386 2.99999 4 2.77614 4 2.49999C4 2.22385 4.22386 1.99999 4.5 1.99999C4.77615 1.99999 5 2.22385 5 2.49999ZM6.50001 2.99999C6.77615 2.99999 7.00001 2.77614 7.00001 2.49999C7.00001 2.22385 6.77615 1.99999 6.50001 1.99999C6.22386 1.99999 6.00001 2.22385 6.00001 2.49999C6.00001 2.77614 6.22386 2.99999 6.50001 2.99999ZM8 3.50001C8 3.77615 7.77614 4.00001 7.5 4.00001C7.22386 4.00001 7 3.77615 7 3.50001C7 3.22387 7.22386 3.00001 7.5 3.00001C7.77614 3.00001 8 3.22387 8 3.50001ZM5.5 4.00001C5.77614 4.00001 6 3.77615 6 3.50001C6 3.22387 5.77614 3.00001 5.5 3.00001C5.22385 3.00001 5 3.22387 5 3.50001C5 3.77615 5.22385 4.00001 5.5 4.00001ZM4.00001 3.50001C4.00001 3.77615 3.77615 4.00001 3.50001 4.00001C3.22387 4.00001 3.00001 3.77615 3.00001 3.50001C3.00001 3.22387 3.22387 3.00001 3.50001 3.00001C3.77615 3.00001 4.00001 3.22387 4.00001 3.50001ZM1.5 4.00001C1.77614 4.00001 2 3.77615 2 3.50001C2 3.22387 1.77614 3.00001 1.5 3.00001C1.22386 3.00001 1 3.22387 1 3.50001C1 3.77615 1.22386 4.00001 1.5 4.00001ZM2.99999 4.5C2.99999 4.77615 2.77614 5 2.49999 5C2.22385 5 1.99999 4.77615 1.99999 4.5C1.99999 4.22386 2.22385 4 2.49999 4C2.77614 4 2.99999 4.22386 2.99999 4.5ZM4.5 5C4.77615 5 5 4.77615 5 4.5C5 4.22386 4.77615 4 4.5 4C4.22386 4 4 4.22386 4 4.5C4 4.77615 4.22386 5 4.5 5ZM7.00001 4.5C7.00001 4.77615 6.77615 5 6.50001 5C6.22386 5 6.00001 4.77615 6.00001 4.5C6.00001 4.22386 6.22386 4 6.50001 4C6.77615 4 7.00001 4.22386 7.00001 4.5ZM7.5 6C7.77614 6 8 5.77614 8 5.5C8 5.22385 7.77614 5 7.5 5C7.22386 5 7 5.22385 7 5.5C7 5.77614 7.22386 6 7.5 6ZM6 5.5C6 5.77614 5.77614 6 5.5 6C5.22385 6 5 5.77614 5 5.5C5 5.22385 5.22385 5 5.5 5C5.77614 5 6 5.22385 6 5.5ZM3.50001 6C3.77615 6 4.00001 5.77614 4.00001 5.5C4.00001 5.22385 3.77615 5 3.50001 5C3.22387 5 3.00001 5.22385 3.00001 5.5C3.00001 5.77614 3.22387 6 3.50001 6ZM2 5.5C2 5.77614 1.77614 6 1.5 6C1.22386 6 1 5.77614 1 5.5C1 5.22385 1.22386 5 1.5 5C1.77614 5 2 5.22385 2 5.5Z" fill="url(#paint0_linear)"/>
</g>
</g>
<defs>
<filter id="filter0_d" x="1" y="1" width="7" height="6" filterUnits="userSpaceOnUse" color-interpolation-filters="sRGB">
<feFlood flood-opacity="0" result="BackgroundImageFix"/>
<feColorMatrix in="SourceAlpha" type="matrix" values="0 0 0 0 0 0 0 0 0 0 0 0 0 0 0 0 0 0 127 0" result="hardAlpha"/>
<feOffset dy="1"/>
<feColorMatrix type="matrix" values="0 0 0 0 0 0 0 0 0 0 0 0 0 0 0 0 0 0 0.06 0"/>
<feBlend mode="normal" in2="BackgroundImageFix" result="effect1_dropShadow"/>
<feBlend mode="normal" in="SourceGraphic" in2="effect1_dropShadow" result="shape"/>
</filter>
<linearGradient id="paint0_linear" x1="1" y1="1" x2="1" y2="6" gradientUnits="userSpaceOnUse">
<stop stop-color="white"/>
<stop offset="1" stop-color="#F0F0F0"/>
</linearGradient>
</defs>
</svg>
