<svg width="60" height="60" viewBox="0 0 60 60" fill="none" xmlns="http://www.w3.org/2000/svg">
<rect width="60" height="60" rx="12" fill="#F7486E"/>
<g clip-path="url(#clip0)">
<path d="M20.6131 39.5456H42.4105C42.4773 39.5456 42.5419 39.5361 42.6041 39.5213C42.609 39.5213 42.6131 39.5221 42.6181 39.5221C43.0834 39.5221 43.4614 39.1445 43.4614 38.6789V14.8433C43.4615 14.3778 43.0834 14 42.6181 14H42.4122H21.9619H20.6143C18.3696 14 16.5437 15.8263 16.5437 18.0704C16.5437 18.1005 16.5497 18.129 16.5526 18.1581C16.5497 20.2311 16.5239 39.2792 16.5497 41.7833C16.548 41.8323 16.5421 41.88 16.5421 41.9295C16.5421 44.0873 18.2317 45.8539 20.3569 45.9873C20.3995 45.9939 20.4413 46.0001 20.4856 46.0001H42.618C43.0833 46.0001 43.4614 45.6225 43.4614 45.1568V41.9823C43.4614 41.5169 43.0833 41.139 42.618 41.139C42.1528 41.139 41.7747 41.517 41.7747 41.9823V44.3135H20.6131C19.3316 44.3135 18.2854 43.296 18.234 42.0272C18.2353 42.0045 18.2394 41.9832 18.239 41.9601C18.2381 41.923 18.2369 41.8654 18.236 41.7888C18.3098 40.54 19.3462 39.5456 20.6131 39.5456ZM21.1882 18.0704C21.1882 17.6049 21.566 17.227 22.0315 17.227C22.497 17.227 22.8748 17.6049 22.8748 18.0704V35.2008C22.8748 35.6661 22.497 36.0441 22.0315 36.0441C21.566 36.0441 21.1882 35.666 21.1882 35.2008V18.0704Z" fill="#FCFCFD"/>
<path d="M34.44 26.272C35.0693 26.3894 35.5867 26.704 35.992 27.216C36.3973 27.728 36.6 28.3147 36.6 28.976C36.6 29.5734 36.4507 30.1014 36.152 30.56C35.864 31.008 35.4427 31.36 34.888 31.616C34.3333 31.872 33.6773 32 32.92 32H28.104V20.832H32.712C33.4693 20.832 34.12 20.9547 34.664 21.2C35.2187 21.4454 35.6347 21.7867 35.912 22.224C36.2 22.6614 36.344 23.1574 36.344 23.712C36.344 24.3627 36.168 24.9067 35.816 25.344C35.4747 25.7814 35.016 26.0907 34.44 26.272ZM30.344 25.44H32.392C32.9253 25.44 33.336 25.3227 33.624 25.088C33.912 24.8427 34.056 24.496 34.056 24.048C34.056 23.6 33.912 23.2534 33.624 23.008C33.336 22.7627 32.9253 22.64 32.392 22.64H30.344V25.44ZM32.6 30.176C33.144 30.176 33.5653 30.048 33.864 29.792C34.1733 29.536 34.328 29.1734 34.328 28.704C34.328 28.224 34.168 27.8507 33.848 27.584C33.528 27.3067 33.096 27.168 32.552 27.168H30.344V30.176H32.6Z" fill="#F7486E"/>
</g>
<defs>
<clipPath id="clip0">
<rect width="32" height="32" fill="white" transform="translate(14 14)"/>
</clipPath>
</defs>
</svg>
