<svg width="24" height="24" viewBox="0 0 24 24" fill="none" xmlns="http://www.w3.org/2000/svg">
<path d="M24 7.66149L12 2L0 7.66149L5.63029 10.3178V17.0307L5.95316 17.2614C6.05632 17.3352 8.51894 19.0661 12 19.0661C12.773 19.0661 13.4956 18.9807 14.1534 18.8471V22H15.5589V18.467C17.0555 17.9591 17.9844 17.3061 18.0469 17.2615L18.3698 17.0308V10.3178L24 7.66149ZM12 3.69781L20.4012 7.66144L12 11.6251L3.59877 7.66149L12 3.69781ZM12 17.503C9.62516 17.503 7.75733 16.5693 7.03568 16.1482V10.9808L12 13.3229L14.1534 12.307V17.2537C13.5067 17.4029 12.7821 17.503 12 17.503ZM16.9643 16.1497C16.6714 16.3217 16.1891 16.5784 15.5588 16.8221V11.6439L16.9643 10.9808V16.1497Z" fill="#777E91"/>
</svg>
