<svg width="60" height="60" viewBox="0 0 60 60" fill="none" xmlns="http://www.w3.org/2000/svg">
<rect width="60" height="60" rx="12" fill="#039E2F"/>
<path d="M19.3334 22H16.6667V40.6667C16.6667 42.1334 17.8667 43.3334 19.3334 43.3334H38.0001V40.6667H19.3334V22ZM40.6667 16.6667H24.6667C23.2001 16.6667 22.0001 17.8667 22.0001 19.3334V35.3334C22.0001 36.8 23.2001 38 24.6667 38H40.6667C42.1334 38 43.3334 36.8 43.3334 35.3334V19.3334C43.3334 17.8667 42.1334 16.6667 40.6667 16.6667ZM40.6667 35.3334H24.6667V19.3334H40.6667V35.3334ZM30.0001 21.3334V33.3334L38.0001 27.3334L30.0001 21.3334Z" fill="#FCFCFD"/>
</svg>
