<svg width="281" height="131" viewBox="0 0 281 131" fill="none" xmlns="http://www.w3.org/2000/svg">
<path d="M232.897 64.4315C232.728 63.3494 231.713 62.6104 230.625 62.7786C229.541 62.9469 228.8 63.963 228.969 65.0452C229.253 66.8928 229.617 72.6796 227.616 75.0056C227.183 75.5104 226.661 75.8106 226.003 75.9327L226.185 64.9132C226.211 63.3131 224.918 62 223.311 62C221.698 62 220.398 63.3263 220.438 64.9363L220.957 85.8502C220.269 85.738 219.723 85.4378 219.277 84.9165C217.277 82.5873 217.64 76.8037 217.925 74.9561C218.093 73.874 217.353 72.8611 216.268 72.6895C215.18 72.5213 214.168 73.2603 213.996 74.3425C213.854 75.253 212.704 83.3527 216.255 87.4932C217.475 88.9152 219.128 89.7235 221.056 89.8489L221.281 98.9515H225.619L225.933 79.9347C227.818 79.7895 229.435 78.9845 230.635 77.5856C234.19 73.4451 233.039 65.3421 232.897 64.4315Z" fill="#BDBDBD"/>
<path d="M47.7288 77.1616C47.6197 76.4721 46.9749 76.0003 46.2805 76.1091C45.5895 76.218 45.1166 76.8647 45.2257 77.5542C45.4076 78.732 45.6391 82.4206 44.3627 83.9052C44.085 84.2253 43.7543 84.4199 43.3344 84.4958L43.4501 77.4717C43.4666 76.4523 42.6433 75.6143 41.6183 75.6143C40.5899 75.6143 39.7633 76.4589 39.7864 77.4882L40.1171 90.8205C39.6773 90.7512 39.3301 90.5565 39.0457 90.2233C37.7694 88.7386 38.0009 85.0501 38.1827 83.8723C38.2918 83.1827 37.819 82.5361 37.1279 82.4272C36.4369 82.3183 35.7888 82.7901 35.6796 83.4797C35.5871 84.0603 34.8563 89.2236 37.118 91.863C37.8951 92.7703 38.9499 93.285 40.1799 93.3642L40.3254 99.1675H43.0897L43.2914 87.0428C44.495 86.9505 45.5233 86.4391 46.2872 85.545C48.5522 82.9056 47.8214 77.7423 47.7288 77.1616Z" fill="#BDBDBD"/>
<path d="M140.5 126.934C218.096 126.934 281 119.547 281 110.434C281 101.321 218.096 93.9341 140.5 93.9341C62.904 93.9341 0 101.321 0 110.434C0 119.547 62.904 126.934 140.5 126.934Z" fill="url(#paint0_linear)" fill-opacity="0.3"/>
<path d="M136.479 62.6622C135.982 61.9756 134.987 61.7925 134.252 62.2568C133.516 62.721 133.32 63.6495 133.817 64.336C134.658 65.5064 136.906 69.3511 136.241 71.5873C136.094 72.0712 135.821 72.4439 135.379 72.7381L131.737 65.1403C131.205 64.0353 129.811 63.5514 128.641 64.0614C127.458 64.578 126.967 65.8988 127.549 66.9907L135.092 81.1402C134.553 81.2841 134.049 81.2514 133.544 81.0356C131.282 80.081 129.566 76.0074 129.146 74.6474C128.9 73.8497 128.011 73.3985 127.156 73.6274C126.302 73.8562 125.819 74.6866 126.064 75.4843C126.274 76.1513 128.207 82.0621 132.22 83.7622C133.6 84.3441 135.085 84.3703 136.542 83.8407L139.827 90L143 88.6138L136.717 75.4974C138.048 74.7978 138.952 73.732 139.351 72.3916C140.513 68.4161 136.899 63.2376 136.479 62.6622Z" fill="#BDBDBD"/>
<path d="M117 54C117 56.2143 115.214 58 113 58C110.786 58 109 56.2143 109 54C109 51.7857 110.786 50 113 50C115.2 50.0143 117 51.8 117 54Z" fill="#BDBDBD"/>
<path d="M159.835 41.0608C159.835 41.4468 159.521 41.7602 159.134 41.7602C158.747 41.7602 158.433 41.4468 158.433 41.0608C158.433 40.6748 158.747 40.3613 159.134 40.3613C159.521 40.3613 159.835 40.6748 159.835 41.0608Z" fill="#BDBDBD"/>
<path d="M140.009 34.4341L66.9997 98.4192C66.9997 98.4192 62.633 109.5 122.5 109.5C180.917 111 185 103.5 185 103.5L174.634 42.0521L140.009 34.4341Z" fill="url(#paint1_linear)"/>
<path d="M177.367 59.3352C177.684 59.4408 178.025 59.4837 178.379 59.4441C179.662 59.2957 180.581 58.1409 180.432 56.8608L179.152 45.782C179.004 44.5019 177.843 43.588 176.563 43.7298C175.28 43.8783 174.361 45.033 174.51 46.3132L175.79 57.392C175.899 58.3191 176.537 59.0548 177.367 59.3352Z" fill="url(#paint2_linear)"/>
<path d="M178.375 61.836C181.003 61.836 183.133 59.7105 183.133 57.0884C183.133 54.4664 181.003 52.3408 178.375 52.3408C175.747 52.3408 173.617 54.4664 173.617 57.0884C173.617 59.7105 175.747 61.836 178.375 61.836Z" fill="url(#paint3_linear)"/>
<path d="M129.749 43.3142C129.431 43.2086 129.134 43.0337 128.879 42.7896C127.947 41.8955 127.917 40.4207 128.813 39.4904L136.554 31.4468C137.45 30.5164 138.928 30.49 139.857 31.3775C140.789 32.2716 140.819 33.7464 139.923 34.6768L132.182 42.7203C131.534 43.3934 130.582 43.5946 129.749 43.3142Z" fill="url(#paint4_linear)"/>
<path d="M130.31 45.6666C132.938 45.6666 135.069 43.541 135.069 40.919C135.069 38.297 132.938 36.1714 130.31 36.1714C127.683 36.1714 125.552 38.297 125.552 40.919C125.552 43.541 127.683 45.6666 130.31 45.6666Z" fill="url(#paint5_linear)"/>
<path d="M158.655 38.4342C148.246 34.9337 138.736 31.1693 130.936 27.583C135.598 35.0426 144.4 41.7961 155.593 45.5606C166.69 49.2953 177.704 49.2755 185.921 46.2369C177.846 44.3893 168.499 41.7466 158.655 38.4342Z" fill="url(#paint6_linear)"/>
<path d="M212.165 47.1313C210.604 51.747 186.35 47.7516 157.987 38.2102C129.623 28.6688 107.899 17.194 109.456 12.5784C111.017 7.96276 135.27 11.9581 163.634 21.4995C191.998 31.0409 213.726 42.519 212.165 47.1313Z" fill="url(#paint7_linear)"/>
<path opacity="0.2" d="M158.625 36.3293C132.219 27.4445 111.569 16.8869 110.104 11.75C109.787 11.9875 109.569 12.2647 109.46 12.5814C107.899 17.197 129.627 28.6718 157.99 38.2132C186.354 47.7546 210.608 51.75 212.169 47.1343C212.278 46.8176 212.268 46.4646 212.162 46.0852C207.873 49.2855 185.032 45.2109 158.625 36.3293Z" fill="white"/>
<path opacity="0.6" d="M162.765 26.1844C175.928 30.612 188.738 32.3771 188.738 32.3771C191.122 19.1702 183.55 5.86436 170.423 1.44668C157.256 -2.9809 143.107 3.0864 137.02 15.1154C137.02 15.1154 149.601 21.7568 162.765 26.1844Z" fill="url(#paint8_linear)"/>
<defs>
<linearGradient id="paint0_linear" x1="138.385" y1="93.9869" x2="138.636" y2="126.976" gradientUnits="userSpaceOnUse">
<stop stop-color="#A296FF" stop-opacity="0.31"/>
<stop offset="1" stop-color="#A296FF" stop-opacity="0"/>
</linearGradient>
<linearGradient id="paint1_linear" x1="122.268" y1="9.04794" x2="118.791" y2="111.092" gradientUnits="userSpaceOnUse">
<stop offset="0.00134342" stop-color="#A296FF" stop-opacity="0.38"/>
<stop offset="1" stop-color="#A296FF" stop-opacity="0"/>
</linearGradient>
<linearGradient id="paint2_linear" x1="176.674" y1="43.7153" x2="181.075" y2="44.669" gradientUnits="userSpaceOnUse">
<stop stop-color="#7666FF"/>
<stop offset="1" stop-color="#4A23EB"/>
</linearGradient>
<linearGradient id="paint3_linear" x1="177.101" y1="52.3408" x2="182.639" y2="55.5214" gradientUnits="userSpaceOnUse">
<stop stop-color="#7666FF"/>
<stop offset="1" stop-color="#4A23EB"/>
</linearGradient>
<linearGradient id="paint4_linear" x1="132.705" y1="30.73" x2="140.021" y2="34.8261" gradientUnits="userSpaceOnUse">
<stop stop-color="#7666FF"/>
<stop offset="1" stop-color="#4A23EB"/>
</linearGradient>
<linearGradient id="paint5_linear" x1="129.036" y1="36.1714" x2="134.574" y2="39.3519" gradientUnits="userSpaceOnUse">
<stop stop-color="#7666FF"/>
<stop offset="1" stop-color="#4A23EB"/>
</linearGradient>
<linearGradient id="paint6_linear" x1="151.064" y1="27.583" x2="164.034" y2="47.1711" gradientUnits="userSpaceOnUse">
<stop stop-color="#7666FF"/>
<stop offset="1" stop-color="#4A23EB"/>
</linearGradient>
<linearGradient id="paint7_linear" x1="147.034" y1="10.6592" x2="170.746" y2="47.0659" gradientUnits="userSpaceOnUse">
<stop stop-color="#7666FF"/>
<stop offset="1" stop-color="#4A23EB"/>
</linearGradient>
<linearGradient id="paint8_linear" x1="163.097" y1="32.3771" x2="163.097" y2="2.31579e-05" gradientUnits="userSpaceOnUse">
<stop stop-color="#FD5900"/>
<stop offset="1" stop-color="#FFDE00"/>
</linearGradient>
</defs>
</svg>
