<svg width="16" height="16" viewBox="0 0 16 16" fill="none" xmlns="http://www.w3.org/2000/svg">
<path d="M12.8221 8.21329V6.7243C12.8221 4.55214 11.3782 2.71108 9.39999 2.10975V1.4356C9.39999 0.663663 8.77197 0.0356445 8.00004 0.0356445C7.2281 0.0356445 6.60009 0.663663 6.60009 1.4356V2.10975C4.6218 2.71108 3.17798 4.5521 3.17798 6.7243V8.21329C3.17798 10.1213 2.45069 11.9306 1.1301 13.3077C1.00068 13.4427 0.964317 13.6418 1.03767 13.8138C1.11103 13.9858 1.27996 14.0974 1.46693 14.0974H5.71373C5.9305 15.1611 6.87326 15.964 8.00004 15.964C9.12684 15.964 10.0695 15.1611 10.2863 14.0974H14.5331C14.7201 14.0974 14.889 13.9858 14.9624 13.8138C15.0357 13.6418 14.9994 13.4427 14.87 13.3077C13.5494 11.9306 12.8221 10.1213 12.8221 8.21329ZM7.53339 1.4356C7.53339 1.17828 7.74272 0.968945 8.00004 0.968945C8.25735 0.968945 8.46669 1.17828 8.46669 1.4356V1.92489C8.3131 1.91009 8.15745 1.90225 8.00004 1.90225C7.84262 1.90225 7.68698 1.91009 7.53339 1.92489V1.4356ZM8.00004 15.0307C7.39168 15.0307 6.87298 14.6405 6.68035 14.0974H9.31972C9.12709 14.6405 8.60839 15.0307 8.00004 15.0307ZM2.47272 13.1641C3.53547 11.7395 4.11128 10.0155 4.11128 8.21329V6.7243C4.11128 4.58004 5.85578 2.83555 8.00004 2.83555C10.1443 2.83555 11.8888 4.58004 11.8888 6.7243V8.21329C11.8888 10.0155 12.4646 11.7395 13.5274 13.1641H2.47272Z" fill="#7666FF" stroke="#7666FF" stroke-width="0.3"/>
</svg>
