<svg width="24" height="24" viewBox="0 0 24 24" fill="none" xmlns="http://www.w3.org/2000/svg">
<path d="M18.0546 12.268V10.3984C18.0546 7.67097 16.2417 5.35931 13.7578 4.60428V3.7578C13.7578 2.78855 12.9692 2 12 2C11.0307 2 10.2422 2.78855 10.2422 3.7578V4.60428C7.75821 5.35931 5.94534 7.67093 5.94534 10.3984V12.268C5.94534 14.6637 5.03214 16.9354 3.37399 18.6646C3.21149 18.8341 3.16583 19.0841 3.25794 19.3001C3.35004 19.516 3.56215 19.6561 3.79692 19.6561H9.12926C9.40144 20.9917 10.5852 21.9998 12 21.9998C13.4148 21.9998 14.5985 20.9917 14.8707 19.6561H20.203C20.4378 19.6561 20.6499 19.516 20.742 19.3001C20.8341 19.0841 20.7884 18.8341 20.626 18.6646C18.9678 16.9354 18.0546 14.6637 18.0546 12.268ZM11.414 3.7578C11.414 3.43472 11.6769 3.17187 12 3.17187C12.3231 3.17187 12.5859 3.43472 12.5859 3.7578V4.37217C12.3931 4.35358 12.1976 4.34373 12 4.34373C11.8023 4.34373 11.6069 4.35358 11.414 4.37217V3.7578ZM12 20.828C11.2361 20.828 10.5848 20.3381 10.343 19.6561H13.657C13.4151 20.3381 12.7638 20.828 12 20.828ZM5.0598 18.4842C6.3942 16.6955 7.1172 14.5308 7.1172 12.268V10.3984C7.1172 7.70601 9.30762 5.5156 12 5.5156C14.6923 5.5156 16.8828 7.70601 16.8828 10.3984V12.268C16.8828 14.5308 17.6058 16.6955 18.9402 18.4842H5.0598Z" fill="#E6E8EC" stroke="#E6E8EC" stroke-width="0.3"/>
<path d="M19.6172 10.3986C19.6172 10.7222 19.8796 10.9845 20.2032 10.9845C20.5267 10.9845 20.7891 10.7222 20.7891 10.3986C20.7891 8.05097 19.8749 5.84384 18.2148 4.18381C17.9861 3.95502 17.615 3.95499 17.3862 4.18381C17.1574 4.41264 17.1574 4.78361 17.3862 5.01244C18.8249 6.45114 19.6172 8.36397 19.6172 10.3986Z" fill="#E6E8EC" stroke="#E6E8EC" stroke-width="0.3"/>
<path d="M3.79687 10.9845C4.12046 10.9845 4.3828 10.7222 4.3828 10.3986C4.3828 8.36399 5.17514 6.45115 6.6138 5.01245C6.84263 4.78363 6.84263 4.41265 6.6138 4.18383C6.38501 3.955 6.014 3.955 5.78518 4.18383C4.12515 5.84385 3.21094 8.05094 3.21094 10.3986C3.21094 10.7222 3.47328 10.9845 3.79687 10.9845Z" fill="#E6E8EC" stroke="#E6E8EC" stroke-width="0.3"/>
</svg>
