<svg width="21" height="20" viewBox="0 0 21 20" fill="none" xmlns="http://www.w3.org/2000/svg">
<path d="M10.4999 2.5C9.57944 2.5 8.83325 3.24619 8.83325 4.16667V4.45118C6.89126 5.13757 5.49992 6.98964 5.49992 9.16667V13.3333H4.66659C4.20635 13.3333 3.83325 13.7064 3.83325 14.1667C3.83325 14.6269 4.20635 15 4.66659 15H16.3333C16.7935 15 17.1666 14.6269 17.1666 14.1667C17.1666 13.7064 16.7935 13.3333 16.3333 13.3333H15.4999V9.16667C15.4999 6.98964 14.1086 5.13757 12.1666 4.45118V4.16667C12.1666 3.24619 11.4204 2.5 10.4999 2.5Z" fill="#E6E8EC"/>
<path d="M10.4999 17.5C9.57944 17.5 8.83325 16.7538 8.83325 15.8333H12.1666C12.1666 16.7538 11.4204 17.5 10.4999 17.5Z" fill="#E6E8EC"/>
</svg>
