<svg width="16" height="16" viewBox="0 0 16 16" fill="none" xmlns="http://www.w3.org/2000/svg">
<g clip-path="url(#clip0)">
<path d="M12.8221 8.21329V6.7243C12.8221 4.55213 11.3782 2.71108 9.39999 2.10975V1.4356C9.39999 0.663662 8.77197 0.0356445 8.00004 0.0356445C7.2281 0.0356445 6.60008 0.663662 6.60008 1.4356V2.10975C4.6218 2.71108 3.17798 4.5521 3.17798 6.7243V8.21329C3.17798 10.1213 2.45069 11.9306 1.1301 13.3077C1.00068 13.4427 0.964317 13.6418 1.03767 13.8138C1.11103 13.9858 1.27996 14.0974 1.46693 14.0974H5.71373C5.9305 15.1611 6.87326 15.964 8.00004 15.964C9.12684 15.964 10.0695 15.1611 10.2863 14.0974H14.5331C14.7201 14.0974 14.889 13.9858 14.9624 13.8138C15.0357 13.6418 14.9994 13.4427 14.87 13.3077C13.5494 11.9306 12.8221 10.1213 12.8221 8.21329ZM7.53339 1.4356C7.53339 1.17828 7.74272 0.968945 8.00004 0.968945C8.25735 0.968945 8.46669 1.17828 8.46669 1.4356V1.92489C8.3131 1.91009 8.15745 1.90225 8.00004 1.90225C7.84262 1.90225 7.68698 1.91009 7.53339 1.92489V1.4356ZM8.00004 15.0307C7.39168 15.0307 6.87298 14.6405 6.68035 14.0974H9.31972C9.12709 14.6405 8.60839 15.0307 8.00004 15.0307ZM2.47272 13.1641C3.53547 11.7395 4.11128 10.0155 4.11128 8.21329V6.7243C4.11128 4.58004 5.85578 2.83555 8.00004 2.83555C10.1443 2.83555 11.8888 4.58004 11.8888 6.7243V8.21329C11.8888 10.0155 12.4646 11.7395 13.5274 13.1641H2.47272Z" fill="#7666FF" stroke="#7666FF" stroke-width="0.3"/>
<path d="M14.0667 6.72446C14.0667 6.98217 14.2756 7.19111 14.5334 7.19111C14.7911 7.19111 15 6.98217 15 6.72446C15 4.85475 14.2719 3.09694 12.9498 1.77485C12.7676 1.59264 12.4721 1.59261 12.2899 1.77485C12.1076 1.9571 12.1076 2.25255 12.2899 2.43479C13.4357 3.5806 14.0667 5.10403 14.0667 6.72446Z" fill="#7666FF" stroke="#7666FF" stroke-width="0.3"/>
<path d="M1.46689 7.19109C1.72461 7.19109 1.93354 6.98215 1.93354 6.72444C1.93354 5.10404 2.56458 3.58062 3.71036 2.4348C3.8926 2.25256 3.8926 1.95711 3.71036 1.77487C3.52815 1.59262 3.23267 1.59262 3.05043 1.77487C1.72834 3.09695 1.00024 4.85473 1.00024 6.72444C1.00024 6.98215 1.20918 7.19109 1.46689 7.19109Z" fill="#7666FF" stroke="#7666FF" stroke-width="0.3"/>
<path fill-rule="evenodd" clip-rule="evenodd" d="M0.248496 0.711501C0.38578 0.560714 0.607999 0.539471 0.744837 0.664055L15.2159 13.8392C15.3527 13.9638 15.3524 14.187 15.2151 14.3378C15.0778 14.4886 14.8556 14.5098 14.7187 14.3852L0.247688 1.2101C0.110851 1.08552 0.111212 0.862288 0.248496 0.711501Z" fill="#7666FF"/>
<path fill-rule="evenodd" clip-rule="evenodd" d="M-0.297481 0.21458C0.114371 -0.237781 0.814953 -0.270621 1.26731 0.141231L17.2136 14.6595C17.6659 15.0713 17.6988 15.7719 17.2869 16.2243C16.8751 16.6766 16.1745 16.7095 15.7221 16.2976L-0.224131 1.77938C-0.676492 1.36752 -0.709332 0.666941 -0.297481 0.21458ZM0.770166 0.687279L16.7164 15.2055C16.8672 15.3428 16.8782 15.5763 16.7409 15.7271C16.6036 15.8779 16.3701 15.8888 16.2193 15.7516L0.273018 1.23333C0.122231 1.09604 0.111284 0.862516 0.248568 0.711729C0.385852 0.560942 0.619379 0.549995 0.770166 0.687279Z" fill="#202139"/>
</g>
<defs>
<clipPath id="clip0">
<rect width="16" height="16" fill="white"/>
</clipPath>
</defs>
</svg>
