<svg width="65" height="65" viewBox="0 0 65 65" fill="none" xmlns="http://www.w3.org/2000/svg">
<g clip-path="url(#clip0)">
<path d="M52.0887 33.3672V27.3182C52.0887 18.4937 46.2231 11.0144 38.1865 8.57156V5.83281C38.1865 2.69683 35.6351 0.145508 32.4992 0.145508C29.3632 0.145508 26.8119 2.69683 26.8119 5.83281V8.57156C18.7751 11.0144 12.9096 18.4936 12.9096 27.3182V33.3672C12.9096 41.1186 9.95495 48.4686 4.59005 54.0634C4.06429 54.6116 3.91655 55.4206 4.21456 56.1193C4.51258 56.8179 5.19884 57.2713 5.95841 57.2713H23.211C24.0917 61.5926 27.9216 64.8543 32.4992 64.8543C37.0768 64.8543 40.9065 61.5926 41.7873 57.2713H59.0399C59.7995 57.2713 60.4856 56.8179 60.7836 56.1193C61.0816 55.4206 60.9339 54.6116 60.4083 54.0634C55.0434 48.4686 52.0887 41.1185 52.0887 33.3672ZM30.6034 5.83281C30.6034 4.78748 31.4538 3.93704 32.4992 3.93704C33.5445 3.93704 34.3949 4.78748 34.3949 5.83281V7.82058C33.771 7.76042 33.1387 7.72857 32.4992 7.72857C31.8597 7.72857 31.2274 7.76042 30.6034 7.82058V5.83281ZM32.4992 61.0628C30.0277 61.0628 27.9205 59.4778 27.1379 57.2713H37.8604C37.0778 59.4778 34.9706 61.0628 32.4992 61.0628ZM10.0444 53.4797C14.3618 47.6923 16.7011 40.6886 16.7011 33.3672V27.3182C16.7011 18.6071 23.7881 11.5201 32.4992 11.5201C41.2102 11.5201 48.2972 18.6071 48.2972 27.3182V33.3672C48.2972 40.6886 50.6365 47.6923 54.954 53.4797H10.0444Z" fill="#FC3232" stroke="#FC3232" stroke-width="0.3"/>
<path d="M57.1447 27.3187C57.1447 28.3657 57.9935 29.2145 59.0405 29.2145C60.0874 29.2145 60.9362 28.3657 60.9362 27.3187C60.9362 19.723 57.9783 12.5819 52.6074 7.21098C51.8671 6.47075 50.6667 6.47062 49.9264 7.21098C49.186 7.95134 49.186 9.15162 49.9264 9.89198C54.5812 14.5468 57.1447 20.7358 57.1447 27.3187Z" fill="#FC3232" stroke="#FC3232" stroke-width="0.3"/>
<path d="M5.95827 29.2144C7.00524 29.2144 7.85403 28.3656 7.85403 27.3187C7.85403 20.7358 10.4176 14.5469 15.0724 9.89202C15.8127 9.15166 15.8127 7.95139 15.0724 7.21103C14.3321 6.47067 13.1317 6.47067 12.3914 7.21103C7.0204 12.582 4.0625 19.723 4.0625 27.3187C4.0625 28.3656 4.9113 29.2144 5.95827 29.2144Z" fill="#FC3232" stroke="#FC3232" stroke-width="0.3"/>
<path fill-rule="evenodd" clip-rule="evenodd" d="M1.0097 2.8909C1.56741 2.27833 2.47018 2.19203 3.02608 2.69815L61.8148 56.2222C62.3707 56.7283 62.3692 57.6352 61.8115 58.2477C61.2538 58.8603 60.351 58.9466 59.7951 58.4405L1.00642 4.91647C0.450514 4.41035 0.451983 3.50347 1.0097 2.8909Z" fill="#FC3232"/>
<path fill-rule="evenodd" clip-rule="evenodd" d="M-1.2087 0.871428C0.464448 -0.96629 3.31057 -1.0997 5.14828 0.573444L69.93 59.5538C71.7677 61.2269 71.9011 64.073 70.2279 65.9108C68.5548 67.7485 65.7087 67.8819 63.871 66.2087L-0.910714 7.22841C-2.74843 5.55526 -2.88184 2.70915 -1.2087 0.871428ZM3.12862 2.79177L67.9103 61.7721C68.5229 62.3298 68.5673 63.2785 68.0096 63.8911C67.4519 64.5037 66.5032 64.5481 65.8906 63.9904L1.10895 5.01009C0.496379 4.45237 0.451908 3.50367 1.00962 2.89109C1.56734 2.27852 2.51604 2.23405 3.12862 2.79177Z" fill="#202139"/>
</g>
<defs>
<clipPath id="clip0">
<rect width="65" height="65" fill="white"/>
</clipPath>
</defs>
</svg>
