<svg width="52" height="52" viewBox="0 0 52 52" fill="none" xmlns="http://www.w3.org/2000/svg">
<circle cx="26" cy="26" r="26" fill="#7666FF"/>
<path d="M33.5206 28.6953L28.7745 32.2109L26.7573 33.9688L36.2539 32.2109L41 28.6953H33.5206Z" fill="#F98E2E"/>
<path d="M23.2254 32.2109L18.4793 28.6953H11L15.7461 32.2109L25.2426 33.9688L23.2254 32.2109Z" fill="#FAB037"/>
<path d="M36.254 32.2109H28.7747L27.0168 36.6055L28.7747 41H36.254V32.2109Z" fill="#FAB037"/>
<path d="M32.7383 18.9395V14.5156H26L24.2422 18.9395L26 30.4363L37.4969 18.9395H32.7383Z" fill="#E6E8EC"/>
<path d="M32.7383 11H26L24.8281 11.8789L26 12.7578H32.7383V11Z" fill="#E6E8EC"/>
<path d="M19.2615 14.5156V18.9395H14.5029L25.9998 30.4363V14.5156H19.2615Z" fill="#FCFCFD"/>
<path d="M26 32.2109L24.2422 36.6055L26 41H28.7746V32.2109H26Z" fill="#FBD141"/>
<path d="M26 32.2109H15.7461V41H26V32.2109Z" fill="#FBF24A"/>
<path d="M26 11H19.2617V12.7578H26V11Z" fill="#FCFCFD"/>
</svg>
