<svg width="24" height="24" viewBox="0 0 24 24" fill="none" xmlns="http://www.w3.org/2000/svg">
<g clip-path="url(#clip0)">
<path d="M23.7723 12.9599C24.0759 12.3585 24.0759 11.6405 23.7723 11.0391L23.4578 10.4163C23.3893 10.2805 23.3654 10.1293 23.3886 9.979L23.4951 9.28956C23.5981 8.62378 23.3762 7.94085 22.9015 7.46274L22.4101 6.9676C22.3029 6.85964 22.2334 6.72322 22.2091 6.57307L22.0974 5.88442C21.9907 5.2268 21.5768 4.65141 20.9883 4.34084L20.3836 3.98423C20.3719 3.97734 20.36 3.97078 20.3479 3.96459C20.2127 3.89507 20.1045 3.78682 20.0349 3.65153L19.7159 3.03114C19.4151 2.44609 18.8017 2.01344 18.115 1.90206L17.4264 1.79039C17.2763 1.76602 17.1398 1.69654 17.0319 1.58943L16.5367 1.0979C16.0586 0.623299 15.3758 0.401562 14.71 0.504321L14.0205 0.610876C13.8701 0.634128 13.719 0.610173 13.5832 0.541636L12.9604 0.22722C12.359 -0.0763675 11.641 -0.0764144 11.0396 0.22722L10.4168 0.541636C10.2811 0.610126 10.13 0.634034 9.97952 0.610923L9.29007 0.504368C8.62416 0.401375 7.94137 0.623346 7.46325 1.09795L6.96807 1.58938C6.86016 1.69654 6.72374 1.76602 6.57359 1.79039L5.88489 1.90206C5.1983 2.01344 4.58489 2.44604 4.28407 3.03114L3.96506 3.65153C3.89549 3.78678 3.78725 3.89507 3.65196 3.96459L3.03151 4.28365C2.44647 4.58447 2.01382 5.19788 1.90248 5.88447L1.79077 6.57316C1.76644 6.72332 1.69692 6.85969 1.58976 6.96765L1.09837 7.46278C0.62377 7.9409 0.401892 8.62378 0.504791 9.28956L0.611394 9.97905C0.634646 10.1293 0.610691 10.2805 0.542107 10.4163L0.227691 11.0391C-0.0758968 11.6404 -0.0758968 12.3585 0.227691 12.9599L0.542107 13.5827C0.610644 13.7184 0.634599 13.8696 0.611394 14.02L0.504791 14.7095C0.401892 15.3752 0.623817 16.0581 1.09837 16.5362L1.58985 17.0314C1.69701 17.1394 1.76654 17.2757 1.79087 17.4259L1.90258 18.1145C2.01392 18.8012 2.44656 19.4146 3.03161 19.7154L3.652 20.0344C3.78729 20.104 3.89554 20.2122 3.96511 20.3475L4.28412 20.968C4.58499 21.553 5.1984 21.9857 5.88498 22.097L6.57363 22.2087C6.72379 22.2331 6.8602 22.3026 6.96812 22.4097L7.4633 22.9012C7.94151 23.3758 8.62435 23.5975 9.29007 23.4947L9.97957 23.3881C10.1298 23.3649 10.2811 23.3889 10.4168 23.4574L11.0396 23.7718C11.3403 23.9236 11.6702 23.9995 12 23.9995C12.3299 23.9995 12.6597 23.9236 12.9604 23.7718L13.5832 23.4574C13.719 23.3889 13.8702 23.365 14.0205 23.3881L14.7099 23.4947C15.3757 23.5975 16.0586 23.3757 16.5367 22.9011L17.0319 22.4096C17.1398 22.3025 17.2762 22.233 17.4264 22.2086L18.115 22.0969C18.7726 21.9903 19.3481 21.5764 19.6586 20.9878L20.0153 20.3831C20.0221 20.3714 20.0287 20.3595 20.0349 20.3474C20.1044 20.2122 20.2127 20.1039 20.3479 20.0344L20.9683 19.7154C21.5675 19.4073 21.9896 18.8264 22.0974 18.1614L22.2091 17.4728C22.2335 17.3226 22.3029 17.1862 22.4101 17.0782C22.4176 17.0707 22.9139 16.5238 22.9139 16.5238C23.38 16.0463 23.5972 15.3694 23.4951 14.7095L23.3886 14.02C23.3653 13.8697 23.3893 13.7184 23.4578 13.5827L23.7723 12.9599Z" fill="url(#paint0_linear)"/>
<path d="M12 3.51489C7.34157 3.51489 3.51489 7.3426 3.51489 12C3.51489 16.6584 7.3426 20.485 12 20.485C16.6584 20.485 20.485 16.6573 20.485 12C20.485 7.34157 16.6573 3.51489 12 3.51489ZM16.9012 10.061L15.4949 15.6864C15.4166 15.9994 15.1354 16.2191 14.8127 16.2191H9.18723C8.86457 16.2191 8.58329 15.9994 8.50505 15.6864L7.09869 10.061C7.01585 9.72957 7.18316 9.38656 7.49533 9.2478C7.80745 9.10909 8.17418 9.2148 8.36465 9.49837C8.55709 9.78123 9.25319 10.5936 9.89042 10.5936C10.0069 10.5936 10.3676 10.3225 10.7393 9.48463C11.0727 8.73293 11.2968 7.76568 11.2968 7.07768C11.2968 6.68934 11.6116 6.3745 12 6.3745C12.3883 6.3745 12.7031 6.68934 12.7031 7.07768C12.7031 7.76568 12.9272 8.73293 13.2606 9.48463C13.6323 10.3225 13.9931 10.5936 14.1095 10.5936C14.7657 10.5936 15.4799 9.72971 15.6353 9.49837C15.8257 9.21484 16.1925 9.10913 16.5046 9.2478C16.8168 9.38656 16.9841 9.72957 16.9012 10.061Z" fill="url(#paint1_linear)"/>
</g>
<defs>
<linearGradient id="paint0_linear" x1="12" y1="23.9995" x2="12" y2="-0.000471115" gradientUnits="userSpaceOnUse">
<stop stop-color="#FD5900"/>
<stop offset="1" stop-color="#FFDE00"/>
</linearGradient>
<linearGradient id="paint1_linear" x1="12" y1="20.485" x2="12" y2="3.51489" gradientUnits="userSpaceOnUse">
<stop stop-color="#FFE59A"/>
<stop offset="1" stop-color="#FFFFD5"/>
</linearGradient>
<clipPath id="clip0">
<rect width="24" height="24" fill="white"/>
</clipPath>
</defs>
</svg>
