<svg width="15" height="15" viewBox="0 0 15 15" fill="none" xmlns="http://www.w3.org/2000/svg">
<path fill-rule="evenodd" clip-rule="evenodd" d="M3.125 1.875C2.43464 1.875 1.875 2.43464 1.875 3.125V11.875C1.875 12.5654 2.43464 13.125 3.125 13.125H11.875C12.5654 13.125 13.125 12.5654 13.125 11.875V3.125C13.125 2.43464 12.5654 1.875 11.875 1.875H3.125ZM10.625 3.75C10.2798 3.75 10 4.02982 10 4.375V10.625C10 10.9702 10.2798 11.25 10.625 11.25C10.9702 11.25 11.25 10.9702 11.25 10.625V4.375C11.25 4.02982 10.9702 3.75 10.625 3.75ZM7.5 6.25C7.15482 6.25 6.875 6.52982 6.875 6.875V10.625C6.875 10.9702 7.15482 11.25 7.5 11.25C7.84518 11.25 8.125 10.9702 8.125 10.625V6.875C8.125 6.52982 7.84518 6.25 7.5 6.25ZM3.75 9.375C3.75 9.02982 4.02982 8.75 4.375 8.75C4.72018 8.75 5 9.02982 5 9.375V10.625C5 10.9702 4.72018 11.25 4.375 11.25C4.02982 11.25 3.75 10.9702 3.75 10.625V9.375Z" fill="#E6E8EC"/>
</svg>
