<svg width="15" height="15" viewBox="0 0 15 15" fill="none" xmlns="http://www.w3.org/2000/svg">
<path d="M8.75 1.25H3.75C3.0625 1.25 2.5 1.8125 2.5 2.5V12.5C2.5 13.1875 3.0625 13.75 3.75 13.75H11.25C11.9375 13.75 12.5 13.1875 12.5 12.5V5L8.75 1.25ZM9.375 6.875H6.875V7.5H8.75C9.09375 7.5 9.375 7.78125 9.375 8.125V10C9.375 10.3438 9.09375 10.625 8.75 10.625H8.125V11.25H6.875V10.625H5.625V9.375H8.125V8.75H6.25C5.90625 8.75 5.625 8.46875 5.625 8.125V6.25C5.625 5.90625 5.90625 5.625 6.25 5.625H6.875V5H8.125V5.625H9.375V6.875Z" fill="#E6E8EC"/>
</svg>
