<svg width="12" height="13" viewBox="0 0 12 13" fill="none" xmlns="http://www.w3.org/2000/svg">
<path fill-rule="evenodd" clip-rule="evenodd" d="M5.625 0.133301C5.21079 0.133301 4.875 0.469087 4.875 0.883301L4.78496 1.51355C4.70435 2.07786 4.04854 2.34951 3.5925 2.00748L3.08318 1.6255C2.79029 1.3326 2.31542 1.3326 2.02252 1.6255L1.49219 2.15583C1.1993 2.44872 1.1993 2.92359 1.49219 3.21649L1.87418 3.7258C2.21621 4.18184 1.94456 4.83765 1.38025 4.91826L0.75 5.0083C0.335786 5.0083 0 5.34409 0 5.7583V6.5083C0 6.92251 0.335786 7.2583 0.75 7.2583L1.38025 7.34834C1.94456 7.42895 2.21621 8.08476 1.87418 8.5408L1.49219 9.05012C1.1993 9.34301 1.1993 9.81788 1.49219 10.1108L2.02252 10.6411C2.31542 10.934 2.79029 10.934 3.08318 10.6411L3.5925 10.2591C4.04854 9.91709 4.70435 10.1887 4.78496 10.7531L4.875 11.3833C4.875 11.7975 5.21079 12.1333 5.625 12.1333H6.375C6.78921 12.1333 7.125 11.7975 7.125 11.3833L7.21503 10.7531C7.29565 10.1887 7.95146 9.91709 8.4075 10.2591L8.91681 10.6411C9.20971 10.934 9.68458 10.934 9.97748 10.6411L10.5078 10.1108C10.8007 9.81788 10.8007 9.34301 10.5078 9.05012L10.1258 8.5408C9.78379 8.08477 10.0554 7.42895 10.6197 7.34834L11.25 7.2583C11.6642 7.2583 12 6.92251 12 6.5083V5.7583C12 5.34409 11.6642 5.0083 11.25 5.0083L10.6198 4.91827C10.0554 4.83765 9.78379 4.18184 10.1258 3.7258L10.5078 3.21649C10.8007 2.92359 10.8007 2.44872 10.5078 2.15583L9.97748 1.6255C9.68458 1.3326 9.20971 1.3326 8.91681 1.6255L8.4075 2.00749C7.95146 2.34951 7.29565 2.07786 7.21503 1.51355L7.125 0.883301C7.125 0.469087 6.78921 0.133301 6.375 0.133301H5.625ZM6 7.6333C6.82843 7.6333 7.5 6.96173 7.5 6.1333C7.5 5.30487 6.82843 4.6333 6 4.6333C5.17157 4.6333 4.5 5.30487 4.5 6.1333C4.5 6.96173 5.17157 7.6333 6 7.6333Z" fill="#FCFCFD"/>
</svg>
