<svg width="20" height="20" viewBox="0 0 20 20" fill="none" xmlns="http://www.w3.org/2000/svg">
<path fill-rule="evenodd" clip-rule="evenodd" d="M17 0C18.6569 0 20 1.34315 20 3V17C20 18.6569 18.6569 20 17 20H3C1.34315 20 0 18.6569 0 17V3C0 1.34315 1.34315 0 3 0H17ZM17 2H3C2.44771 2 2 2.44771 2 3V17C2 17.5523 2.44771 18 3 18H17C17.5523 18 18 17.5523 18 17V3C18 2.44771 17.5523 2 17 2ZM6 12C6.55228 12 7 12.4477 7 13V15C7 15.5523 6.55228 16 6 16C5.44771 16 5 15.5523 5 15V13C5 12.4477 5.44771 12 6 12ZM10 4C10.5523 4 11 4.44772 11 5V15C11 15.5523 10.5523 16 10 16C9.44771 16 9 15.5523 9 15V5C9 4.44772 9.44771 4 10 4ZM14 8C14.5523 8 15 8.44771 15 9V15C15 15.5523 14.5523 16 14 16C13.4477 16 13 15.5523 13 15V9C13 8.44771 13.4477 8 14 8Z" fill="#777E91"/>
</svg>
