<svg width="60" height="60" viewBox="0 0 60 60" fill="none" xmlns="http://www.w3.org/2000/svg">
<rect width="60" height="60" rx="12" fill="#3772FF"/>
<path d="M30.0001 14C23.5297 14 18.2656 19.2641 18.2656 25.7344C18.2656 27.7797 18.8001 29.7936 19.8112 31.5587C20.7029 33.1154 21.9484 34.4552 23.4331 35.46V46H36.5671V35.46C38.0518 34.4552 39.2973 33.1154 40.189 31.5587C41.2001 29.7936 41.7346 27.7796 41.7346 25.7344C41.7345 19.2641 36.4704 14 30.0001 14V14ZM25.3081 38.494H34.6921V40.372H25.3081V38.494ZM26.2471 26.6734C25.7293 26.6734 25.3081 26.2522 25.3081 25.7344C25.3081 25.2167 25.7293 24.7955 26.2471 24.7955C26.7648 24.7955 27.186 25.2167 27.186 25.7344C27.186 26.2522 26.7648 26.6734 26.2471 26.6734ZM30.9391 28.5484V36.619H29.061V28.5484H30.9391ZM32.8141 25.7344C32.8141 25.2167 33.2353 24.7955 33.753 24.7955C34.2708 24.7955 34.692 25.2167 34.692 25.7344C34.692 26.2522 34.2708 26.6734 33.753 26.6734C33.2353 26.6734 32.8141 26.2522 32.8141 25.7344ZM25.3081 44.125V42.247H34.6921V44.125H25.3081ZM38.562 30.6268C37.738 32.0652 36.5548 33.2833 35.1401 34.1494L34.6921 34.4237V36.619H32.8141V28.5484H33.753C35.3046 28.5484 36.567 27.2861 36.567 25.7344C36.567 24.1828 35.3046 22.9205 33.753 22.9205C32.2014 22.9205 30.9391 24.1828 30.9391 25.7344C30.9391 26.0636 30.9964 26.3796 31.1007 26.6734H28.8993C29.0037 26.3796 29.061 26.0636 29.061 25.7344C29.061 24.1828 27.7987 22.9205 26.2471 22.9205C24.6954 22.9205 23.4331 24.1828 23.4331 25.7344C23.4331 27.2861 24.6954 28.5484 26.2471 28.5484H27.186V36.619H25.308V34.4237L24.86 34.1494C23.4453 33.2833 22.2621 32.0651 21.4381 30.6268C20.5893 29.1449 20.1406 27.4532 20.1406 25.7344C20.1406 20.2979 24.5636 15.875 30.0001 15.875C35.4366 15.875 39.8595 20.2979 39.8595 25.7344C39.8595 27.4532 39.4108 29.1449 38.562 30.6268Z" fill="#FCFCFD"/>
</svg>
